PathFileType	4	(X/Y/Z)	c:/Users/goper/Files/vsCode/490R/osim_files/C15/C15_Fast_04.trc
DataRate	CameraRate	NumFrames	NumMarkers	Units                	OrigDataRate	OrigDataStartFrame	OrigNumFrames
250.00	250.00	7	36	mm	250.0	1038	2766
                Frame#	Time	LPSIS			LASIS			LTH1			LTH2			LTH3			LTH4			LLFE			LMFE			LSH1			LSH2			LSH3			LSH4			LLMAL			LMMAL			LCAL			LMTP5			LTOE			LMTP1			RPSIS			RASIS			RTH1			RTH2			RTH3			RTH4			RLFE			RMFE			RSH1			RSH2			RSH3			RSH4			RLMAL			RMMAL			RCAL			RMTP1			RTOE			RMTP5		
		X1	Y1	Z1	X2	Y2	Z2	X3	Y3	Z3	X4	Y4	Z4	X5	Y5	Z5	X6	Y6	Z6	X7	Y7	Z7	X8	Y8	Z8	X9	Y9	Z9	X10	Y10	Z10	X11	Y11	Z11	X12	Y12	Z12	X13	Y13	Z13	X14	Y14	Z14	X15	Y15	Z15	X16	Y16	Z16	X17	Y17	Z17	X18	Y18	Z18	X19	Y19	Z19	X20	Y20	Z20	X21	Y21	Z21	X22	Y22	Z22	X23	Y23	Z23	X24	Y24	Z24	X25	Y25	Z25	X26	Y26	Z26	X27	Y27	Z27	X28	Y28	Z28	X29	Y29	Z29	X30	Y30	Z30	X31	Y31	Z31	X32	Y32	Z32	X33	Y33	Z33	X34	Y34	Z34	X35	Y35	Z35	X36	Y36	Z36

1038	4.14800	1561.27783	992.36279	297.14090	0.00000	0.00000	0.00000	0.00000	0.00000	0.00000	1342.33594	543.36591	394.48453	1312.42395	611.42279	410.25339	0.00000	0.00000	0.00000	1305.29712	486.06870	375.44745	1303.49109	473.64175	252.92412	1335.71875	368.29855	385.63019	1323.37805	322.72720	389.34738	1274.37219	377.89001	385.23682	1274.40625	332.07761	389.70834	1244.05676	75.19262	331.98892	1227.51331	105.60211	245.52875	1298.71130	49.59406	286.57202	1116.04321	41.79557	350.52542	1064.96106	83.24606	293.87662	1100.67004	50.01532	235.19495	1567.32922	991.94049	176.89981	1419.13721	956.90216	100.26808	1550.26306	598.28845	66.93551	0.00000	0.00000	0.00000	1490.88928	584.55383	78.77052	1504.31750	539.16833	85.21268	1575.70886	460.38419	99.83801	1586.41150	449.07803	219.94641	1700.19043	406.80490	87.94144	1724.09753	370.29391	86.39086	0.00000	0.00000	0.00000	0.00000	0.00000	0.00000	1856.72559	139.49268	156.31262	1815.98633	147.04691	240.69284	1923.00000	138.33296	200.35854	0.00000	0.00000	0.00000	1559.48462	554.42047	76.00737	0.00000	0.00000	0.00000
1039	4.15200	1555.22119	992.88416	297.14783	0.00000	0.00000	0.00000	0.00000	0.00000	0.00000	1336.07227	544.23065	395.14523	1307.12085	612.00616	410.69327	0.00000	0.00000	0.00000	1299.33728	486.88156	375.78897	1298.84460	473.15503	253.45987	1329.94324	369.35211	387.01828	1318.12146	323.86282	390.89075	1268.91553	378.67270	385.55707	1269.52710	333.24789	390.94003	1245.09753	76.85834	332.74600	1226.11865	105.23899	245.58786	1297.94946	50.21441	286.63113	1115.42041	40.03064	350.86130	1063.91516	81.07419	294.19214	1100.01978	48.13913	235.38365	1561.21570	991.92279	176.94427	1412.98279	956.60809	100.53533	1543.65784	597.76624	66.96075	1552.74927	553.84528	75.94075	1484.18506	584.09930	78.59248	1498.89771	539.02582	84.26665	0.00000	0.00000	0.00000	1579.03198	448.26083	219.76389	1694.01123	408.20712	88.08152	1718.40295	371.95728	86.43765	0.00000	0.00000	0.00000	1681.21704	339.28635	87.87299	1853.61975	142.19864	155.76607	1812.35571	149.04008	239.85265	1919.57703	142.61545	200.01659	1755.33020	37.39574	252.76828	0.00000	0.00000	0.00000	0.00000	0.00000	0.00000
1040	4.15600	1548.90149	993.52203	298.02335	0.00000	0.00000	0.00000	0.00000	0.00000	0.00000	1329.51550	545.10760	395.81561	1301.13745	612.47900	411.20099	0.00000	0.00000	0.00000	1293.05334	487.61868	376.07104	1291.45239	477.07761	251.55809	1324.26428	370.33548	388.39944	1314.37500	325.98456	392.81894	1263.27515	379.12512	385.75171	1264.48389	333.94333	391.63480	1243.94861	76.60637	332.72513	1224.86975	104.95515	245.62827	1297.45569	51.00723	286.68488	1114.68140	38.46795	350.86261	1062.49658	78.17719	294.31110	1099.30823	46.26699	235.42821	1555.11169	991.96204	176.93318	1406.77551	956.30164	100.99335	1536.82483	597.21820	67.02478	1545.77246	553.28143	75.83079	1477.30786	583.69855	78.37429	1491.95984	538.54352	83.84070	0.00000	0.00000	0.00000	1571.26709	447.31747	219.47533	1687.38135	409.48572	88.16862	1712.36169	373.64087	86.55269	0.00000	0.00000	0.00000	0.00000	0.00000	0.00000	1850.18982	144.84885	155.19540	1808.20825	150.86479	238.90355	1915.71045	146.92908	199.61902	0.00000	0.00000	0.00000	1475.69226	393.77036	92.22696	0.00000	0.00000	0.00000
1041	4.16000	1543.34045	994.02979	297.12766	0.00000	0.00000	0.00000	0.00000	0.00000	0.00000	1322.64868	545.95410	396.47232	1292.22168	614.34930	410.44510	0.00000	0.00000	0.00000	1286.68237	488.30896	376.42169	1290.75049	474.94727	252.58029	1318.91577	371.37939	389.86960	1307.64453	325.69626	393.72931	1257.96375	379.75482	386.07156	1259.19934	334.30142	391.97043	1242.66394	76.37470	332.44196	1223.84631	104.74968	245.66858	1297.05994	51.66480	286.77078	1114.14624	37.29568	350.91925	1061.49207	75.80159	294.06717	1098.71313	44.42498	235.20947	1549.02515	992.00067	176.93423	0.00000	0.00000	0.00000	1529.82129	596.68066	67.03115	1538.64795	552.71411	75.65701	1470.24268	583.28046	78.12897	1485.58386	539.61523	82.02934	0.00000	0.00000	0.00000	1563.53625	446.53918	219.16826	1683.59265	413.39618	89.66531	1706.05371	375.41064	86.60715	0.00000	0.00000	0.00000	0.00000	0.00000	0.00000	1846.45496	147.52348	154.63705	1803.80042	152.75348	237.88446	1911.59558	151.50943	199.19484	1756.32703	40.24294	253.71236	0.00000	0.00000	0.00000	0.00000	0.00000	0.00000
1042	4.16400	1537.42700	994.54547	297.14078	0.00000	0.00000	0.00000	1331.69702	590.50732	415.15308	1315.76453	546.82037	397.00125	1285.41992	615.39539	410.97849	0.00000	0.00000	0.00000	1280.72180	489.01260	376.76965	1285.84595	475.52982	253.04230	0.00000	0.00000	0.00000	0.00000	0.00000	0.00000	1252.81799	380.22272	386.37549	1256.30518	335.35666	392.81894	1241.97717	76.54397	332.81024	1222.88135	104.57817	245.67003	1296.55432	52.20960	286.90228	1113.54285	36.57865	350.77557	1060.41772	73.69841	293.24777	1098.37988	42.60725	234.75862	1542.99097	992.10132	176.88887	1394.94922	956.07056	101.30324	1522.74512	596.23895	66.98894	1529.77039	551.15625	75.98395	1463.10339	583.00409	77.82360	1477.28943	537.68793	83.08472	0.00000	0.00000	0.00000	1555.20654	445.47223	218.71558	1673.68689	412.50620	88.51889	1699.67285	377.26373	86.68958	0.00000	0.00000	0.00000	0.00000	0.00000	0.00000	1842.57715	150.31638	154.01346	1799.15796	154.69702	236.79089	1907.17004	156.08363	198.77211	1753.19629	38.63557	252.21147	0.00000	0.00000	0.00000	0.00000	0.00000	0.00000
1043	4.16800	1531.57007	995.09595	297.14130	0.00000	0.00000	0.00000	0.00000	0.00000	0.00000	1310.67725	548.96735	397.90338	1278.86292	616.43695	410.73944	0.00000	0.00000	0.00000	1274.43958	489.72919	376.91605	1280.91370	475.94623	253.52612	0.00000	0.00000	0.00000	1299.92151	329.02985	397.93579	1247.90564	380.61099	386.68420	1250.80566	335.47903	393.58298	1240.87769	76.50124	332.77631	1222.81482	105.59802	244.54216	1296.19214	52.71180	287.04138	1112.86011	36.08516	350.33612	1059.55750	71.65189	292.07910	1098.10852	40.70586	234.11450	1536.95752	992.16962	176.89087	1389.40881	956.14740	101.19618	1515.41821	595.72900	66.92380	1523.80298	551.58704	75.22662	1455.71765	582.72473	77.57407	1469.73157	537.30426	82.54078	0.00000	0.00000	0.00000	1546.83203	444.46689	218.21013	1666.46448	414.00574	88.66319	1692.77002	378.73996	86.59294	0.00000	0.00000	0.00000	0.00000	0.00000	0.00000	1838.28796	153.02541	153.33995	1794.17200	156.58168	235.60757	1902.39050	160.76939	198.27066	0.00000	0.00000	0.00000	1266.41467	480.34088	257.15225	0.00000	0.00000	0.00000
1044	4.17200	1525.84338	995.64288	297.12747	0.00000	0.00000	0.00000	1318.43628	592.79254	416.61322	1301.99219	548.42792	397.81207	1272.92554	617.65338	410.72485	0.00000	0.00000	0.00000	1268.49438	490.20895	377.08118	1275.97681	476.37958	254.00835	0.00000	0.00000	0.00000	1295.39648	329.44482	398.24136	1243.40051	381.10391	387.09680	1244.56189	335.87155	393.51764	1237.68750	74.73872	332.03680	1221.68103	104.32970	245.45729	1295.90344	53.14333	287.18976	1112.25378	35.82421	349.74979	1058.71362	69.89479	290.76605	1097.96191	38.94877	233.27678	1530.92810	992.26672	176.94061	1384.06274	956.37604	100.93741	1508.06177	595.25049	66.84357	1516.16052	551.01379	74.91653	1448.24707	582.43622	77.29997	1463.01538	538.48694	80.61371	0.00000	0.00000	0.00000	1538.05896	443.25772	217.57454	1662.11536	418.09882	90.27169	1685.63452	380.09927	86.36332	0.00000	0.00000	0.00000	0.00000	0.00000	0.00000	1833.87708	155.70920	152.62480	1788.95496	158.52928	234.38490	1897.34412	165.53160	197.74098	1751.39270	40.11193	251.78874	0.00000	0.00000	0.00000	0.00000	0.00000	0.00000
